<?xml version="1.0" encoding="UTF-8" standalone="no"?>
<!DOCTYPE svg PUBLIC "-//W3C//DTD SVG 1.1//EN"
 "http://www.w3.org/Graphics/SVG/1.1/DTD/svg11.dtd">
<!-- Generated by graphviz version 2.43.0 (0)
 -->
<!-- Pages: 1 -->
<svg width="629pt" height="699pt"
 viewBox="0.00 0.00 629.00 698.72" xmlns="http://www.w3.org/2000/svg" xmlns:xlink="http://www.w3.org/1999/xlink">
<g id="graph0" class="graph" transform="scale(1 1) rotate(0) translate(4 694.72)">
<polygon fill="white" stroke="transparent" points="-4,4 -4,-694.72 625,-694.72 625,4 -4,4"/>
<!-- r1 -->
<g id="node1" class="node">
<title>r1</title>
<ellipse fill="none" stroke="red" stroke-width="3" cx="216" cy="-345.36" rx="27" ry="18"/>
<text text-anchor="middle" x="216" y="-341.66" font-family="helvetica bold" font-size="14.00">r1</text>
</g>
<!-- t1 -->
<g id="node2" class="node">
<title>t1</title>
<ellipse fill="none" stroke="blue" stroke-width="3" cx="342" cy="-345.36" rx="27" ry="18"/>
<text text-anchor="middle" x="342" y="-341.66" font-family="helvetica bold" font-size="14.00">t1</text>
</g>
<!-- r1&#45;&#45;t1 -->
<g id="edge1" class="edge">
<title>r1&#45;&#45;t1</title>
<path fill="none" stroke="black" stroke-width="2" d="M241.8,-350.93C263.55,-352.5 294.5,-352.5 316.23,-350.93"/>
<text text-anchor="middle" x="304.73" y="-353.93" font-family="helvetica bold" font-size="10.00"> t1:2 </text>
<text text-anchor="middle" x="253.8" y="-353.93" font-family="helvetica bold" font-size="10.00"> r1:1 </text>
</g>
<!-- r1&#45;&#45;t1 -->
<g id="edge2" class="edge">
<title>r1&#45;&#45;t1</title>
<path fill="none" stroke="black" stroke-width="2" d="M241.8,-339.79C263.55,-338.21 294.5,-338.21 316.23,-339.79"/>
<text text-anchor="middle" x="304.73" y="-342.79" font-family="helvetica bold" font-size="10.00"> t1:4 </text>
<text text-anchor="middle" x="253.8" y="-342.79" font-family="helvetica bold" font-size="10.00"> r1:4 </text>
</g>
<!-- t2 -->
<g id="node3" class="node">
<title>t2</title>
<ellipse fill="none" stroke="blue" stroke-width="3" cx="153" cy="-454.48" rx="27" ry="18"/>
<text text-anchor="middle" x="153" y="-450.78" font-family="helvetica bold" font-size="14.00">t2</text>
</g>
<!-- r1&#45;&#45;t2 -->
<g id="edge3" class="edge">
<title>r1&#45;&#45;t2</title>
<path fill="none" stroke="black" stroke-width="2" d="M201.12,-360.79C187.06,-380.76 167.21,-415.32 157.75,-436.46"/>
<text text-anchor="middle" x="146.25" y="-428.46" font-family="helvetica bold" font-size="10.00"> t2:2 </text>
<text text-anchor="middle" x="189.12" y="-363.79" font-family="helvetica bold" font-size="10.00"> r1:2 </text>
</g>
<!-- r1&#45;&#45;t2 -->
<g id="edge4" class="edge">
<title>r1&#45;&#45;t2</title>
<path fill="none" stroke="black" stroke-width="2" d="M211.22,-363.44C201.71,-384.67 181.78,-419.36 167.72,-439.27"/>
<text text-anchor="middle" x="179.22" y="-431.27" font-family="helvetica bold" font-size="10.00"> t2:4 </text>
<text text-anchor="middle" x="223.22" y="-366.44" font-family="helvetica bold" font-size="10.00"> r1:5 </text>
</g>
<!-- t3 -->
<g id="node4" class="node">
<title>t3</title>
<ellipse fill="none" stroke="blue" stroke-width="3" cx="153" cy="-236.24" rx="27" ry="18"/>
<text text-anchor="middle" x="153" y="-232.54" font-family="helvetica bold" font-size="14.00">t3</text>
</g>
<!-- r1&#45;&#45;t3 -->
<g id="edge5" class="edge">
<title>r1&#45;&#45;t3</title>
<path fill="none" stroke="black" stroke-width="2" d="M211.22,-327.27C201.71,-306.05 181.78,-271.35 167.72,-251.45"/>
<text text-anchor="middle" x="179.22" y="-254.45" font-family="helvetica bold" font-size="10.00"> t3:2 </text>
<text text-anchor="middle" x="199.22" y="-319.27" font-family="helvetica bold" font-size="10.00"> r1:3 </text>
</g>
<!-- r1&#45;&#45;t3 -->
<g id="edge6" class="edge">
<title>r1&#45;&#45;t3</title>
<path fill="none" stroke="black" stroke-width="2" d="M201.12,-329.92C187.06,-309.96 167.21,-275.39 157.75,-254.25"/>
<text text-anchor="middle" x="146.25" y="-257.25" font-family="helvetica bold" font-size="10.00"> t3:4 </text>
<text text-anchor="middle" x="189.12" y="-332.92" font-family="helvetica bold" font-size="10.00"> r1:6 </text>
</g>
<!-- s1 -->
<g id="node5" class="node">
<title>s1</title>
<ellipse fill="none" stroke="orange" stroke-width="3" cx="468" cy="-345.36" rx="27" ry="18"/>
<text text-anchor="middle" x="468" y="-341.66" font-family="helvetica bold" font-size="14.00">s1</text>
</g>
<!-- s1&#45;&#45;t1 -->
<g id="edge7" class="edge">
<title>s1&#45;&#45;t1</title>
<path fill="none" stroke="black" stroke-width="2" d="M442.2,-339.79C420.45,-338.21 389.5,-338.21 367.77,-339.79"/>
<text text-anchor="middle" x="379.27" y="-342.79" font-family="helvetica bold" font-size="10.00"> t1:1 </text>
<text text-anchor="middle" x="429.7" y="-342.79" font-family="helvetica bold" font-size="10.00"> s1:2 </text>
</g>
<!-- s1&#45;&#45;t1 -->
<g id="edge8" class="edge">
<title>s1&#45;&#45;t1</title>
<path fill="none" stroke="black" stroke-width="2" d="M442.2,-350.93C420.45,-352.5 389.5,-352.5 367.77,-350.93"/>
<text text-anchor="middle" x="379.27" y="-353.93" font-family="helvetica bold" font-size="10.00"> t1:3 </text>
<text text-anchor="middle" x="429.7" y="-353.93" font-family="helvetica bold" font-size="10.00"> s1:4 </text>
</g>
<!-- s2 -->
<g id="node6" class="node">
<title>s2</title>
<ellipse fill="none" stroke="orange" stroke-width="3" cx="90" cy="-563.6" rx="27" ry="18"/>
<text text-anchor="middle" x="90" y="-559.9" font-family="helvetica bold" font-size="14.00">s2</text>
</g>
<!-- s2&#45;&#45;t2 -->
<g id="edge9" class="edge">
<title>s2&#45;&#45;t2</title>
<path fill="none" stroke="black" stroke-width="2" d="M104.88,-548.16C118.94,-528.19 138.79,-493.63 148.25,-472.49"/>
<text text-anchor="middle" x="136.75" y="-475.49" font-family="helvetica bold" font-size="10.00"> t2:1 </text>
<text text-anchor="middle" x="117.38" y="-540.16" font-family="helvetica bold" font-size="10.00"> s2:2 </text>
</g>
<!-- s2&#45;&#45;t2 -->
<g id="edge10" class="edge">
<title>s2&#45;&#45;t2</title>
<path fill="none" stroke="black" stroke-width="2" d="M94.78,-545.51C104.29,-524.28 124.22,-489.59 138.28,-469.68"/>
<text text-anchor="middle" x="126.78" y="-461.68" font-family="helvetica bold" font-size="10.00"> t2:3 </text>
<text text-anchor="middle" x="82.28" y="-537.51" font-family="helvetica bold" font-size="10.00"> s2:4 </text>
</g>
<!-- s3 -->
<g id="node7" class="node">
<title>s3</title>
<ellipse fill="none" stroke="orange" stroke-width="3" cx="90" cy="-127.12" rx="27" ry="18"/>
<text text-anchor="middle" x="90" y="-123.42" font-family="helvetica bold" font-size="14.00">s3</text>
</g>
<!-- s3&#45;&#45;t3 -->
<g id="edge11" class="edge">
<title>s3&#45;&#45;t3</title>
<path fill="none" stroke="black" stroke-width="2" d="M94.78,-145.2C104.29,-166.43 124.22,-201.12 138.28,-221.03"/>
<text text-anchor="middle" x="126.78" y="-213.03" font-family="helvetica bold" font-size="10.00"> t3:1 </text>
<text text-anchor="middle" x="82.28" y="-148.2" font-family="helvetica bold" font-size="10.00"> s3:2 </text>
</g>
<!-- s3&#45;&#45;t3 -->
<g id="edge12" class="edge">
<title>s3&#45;&#45;t3</title>
<path fill="none" stroke="black" stroke-width="2" d="M104.88,-142.55C118.94,-162.52 138.79,-197.08 148.25,-218.22"/>
<text text-anchor="middle" x="159.75" y="-210.22" font-family="helvetica bold" font-size="10.00"> t3:3 </text>
<text text-anchor="middle" x="117.38" y="-145.55" font-family="helvetica bold" font-size="10.00"> s3:4 </text>
</g>
<!-- h1 -->
<g id="node8" class="node">
<title>h1</title>
<polygon fill="none" stroke="black" stroke-width="3" points="621,-363.36 567,-363.36 567,-327.36 621,-327.36 621,-363.36"/>
<text text-anchor="middle" x="594" y="-341.66" font-family="helvetica bold" font-size="14.00">h1</text>
</g>
<!-- h1&#45;&#45;s1 -->
<g id="edge13" class="edge">
<title>h1&#45;&#45;s1</title>
<path fill="none" stroke="black" stroke-width="2" d="M566.97,-345.36C545.86,-345.36 516.63,-345.36 495.42,-345.36"/>
<text text-anchor="middle" x="507.92" y="-348.36" font-family="helvetica bold" font-size="10.00"> s1:1 </text>
<text text-anchor="middle" x="553.97" y="-348.36" font-family="helvetica bold" font-size="10.00"> h1:0 </text>
</g>
<!-- h2 -->
<g id="node9" class="node">
<title>h2</title>
<polygon fill="none" stroke="black" stroke-width="3" points="54,-690.72 0,-690.72 0,-654.72 54,-654.72 54,-690.72"/>
<text text-anchor="middle" x="27" y="-669.02" font-family="helvetica bold" font-size="14.00">h2</text>
</g>
<!-- h2&#45;&#45;s2 -->
<g id="edge14" class="edge">
<title>h2&#45;&#45;s2</title>
<path fill="none" stroke="black" stroke-width="2" d="M37.4,-654.7C49.29,-634.12 68.58,-600.7 80.2,-580.56"/>
<text text-anchor="middle" x="67.7" y="-583.56" font-family="helvetica bold" font-size="10.00"> s2:1 </text>
<text text-anchor="middle" x="24.4" y="-646.7" font-family="helvetica bold" font-size="10.00"> h2:0 </text>
</g>
<!-- h3 -->
<g id="node10" class="node">
<title>h3</title>
<polygon fill="none" stroke="black" stroke-width="3" points="54,-36 0,-36 0,0 54,0 54,-36"/>
<text text-anchor="middle" x="27" y="-14.3" font-family="helvetica bold" font-size="14.00">h3</text>
</g>
<!-- h3&#45;&#45;s3 -->
<g id="edge15" class="edge">
<title>h3&#45;&#45;s3</title>
<path fill="none" stroke="black" stroke-width="2" d="M37.4,-36.02C49.29,-56.6 68.58,-90.02 80.2,-110.15"/>
<text text-anchor="middle" x="67.7" y="-102.15" font-family="helvetica bold" font-size="10.00"> s3:1 </text>
<text text-anchor="middle" x="24.4" y="-39.02" font-family="helvetica bold" font-size="10.00"> h3:0 </text>
</g>
</g>
</svg>
